# xmcd
#
# Track frame offsets: 
#        150
#        21030
#        45964
#        65147
#        97220
#        120197
#        152397
#        188815
#        230075
#        266867
#
# Disc length: 4027 seconds
#
# Revision: 0
# Processed by: cddbd v1.5.2PL0 Copyright (c) Steve Scherf et al.
# Submitted via: ExactAudioCopy v0.99pb3
#
DISCID=800fb90a
DTITLE=Roy Roberts - Live!
DYEAR=1996
DGENRE=Blues
TTITLE0=Jammin' With My Friends
TTITLE1=Me And My Baby
TTITLE2=Thrill Is Gone
TTITLE3=Why Didn't You Come Home Last Night
TTITLE4=Comin' Thru The Back Door
TTITLE5=What Should I Do
TTITLE6=Medley - Rock Me Baby, Meet Me With Your Black Drawers On, The
TTITLE6=Blues Is Alright, Sweet Home Chicago
TTITLE7=Ain't No Sunshine
TTITLE8=My Baby Left Me
TTITLE9=A Woman Need Love
EXTD=
EXTT0=
EXTT1=
EXTT2=
EXTT3=
EXTT4=
EXTT5=
EXTT6=
EXTT7=
EXTT8=
EXTT9=
PLAYORDER=
